<svg width="91" height="91" viewBox="0 0 91 91" fill="none" xmlns="http://www.w3.org/2000/svg">
<path d="M79.625 69.0925C79.625 70.8803 78.9061 72.5949 77.626 73.859C76.346 75.1232 74.6101 75.8333 72.8 75.8333H18.2C16.3899 75.8333 14.6539 75.1232 13.374 73.859C12.0941 72.5949 11.375 70.8803 11.375 69.0925V21.9074C11.375 20.1197 12.0941 18.4051 13.374 17.141C14.6539 15.8769 16.3899 15.1667 18.2 15.1667H35.2625L42.0875 25.2778H72.8C74.6101 25.2778 76.346 25.988 77.626 27.2521C78.9061 28.5162 79.625 30.2308 79.625 32.0185V69.0925Z" stroke="#14181F" stroke-width="2" stroke-linecap="round" stroke-linejoin="round"/>
<path d="M11.375 68.2496L31.2054 45.1144C32.7325 43.3327 35.4949 43.352 36.997 45.1546L50.4254 61.2684C51.8526 62.9811 54.4426 63.0986 56.0192 61.5221L61.4629 56.0788C63.0607 54.4806 65.6929 54.6265 67.1049 56.3912L79.625 72.0413" stroke="#14181F" stroke-width="2" stroke-linecap="round" stroke-linejoin="round"/>
<path d="M54.9792 45.5C51.838 45.5 49.2917 42.9536 49.2917 39.8125C49.2917 36.6714 51.838 34.125 54.9792 34.125C58.1203 34.125 60.6667 36.6714 60.6667 39.8125C60.6667 42.9536 58.1203 45.5 54.9792 45.5Z" fill="#14181F"/>
<path d="M11.375 68.2496L31.2054 45.1144C32.7325 43.3327 35.4949 43.352 36.997 45.1546L50.4254 61.2684C51.8526 62.9811 54.4426 63.0986 56.0192 61.5221L61.4629 56.0788C63.0607 54.4806 65.6929 54.6265 67.1049 56.3912L79.625 72.0413" stroke="#14181F" stroke-width="2" stroke-linecap="round" stroke-linejoin="round"/>
<path d="M54.9792 45.5C51.838 45.5 49.2917 42.9536 49.2917 39.8125C49.2917 36.6714 51.838 34.125 54.9792 34.125C58.1203 34.125 60.6667 36.6714 60.6667 39.8125C60.6667 42.9536 58.1203 45.5 54.9792 45.5Z" fill="#14181F"/>
</svg>
