<svg width="49" height="49" viewBox="0 0 49 49" fill="none" xmlns="http://www.w3.org/2000/svg">
<path d="M34.7084 36.75C34.7084 35.6224 35.6224 34.7084 36.75 34.7084C37.8777 34.7084 38.7917 35.6224 38.7917 36.75C38.7917 37.8777 37.8777 38.7917 36.75 38.7917C35.6224 38.7917 34.7084 37.8777 34.7084 36.75Z" stroke="#14181F" stroke-width="2" stroke-linecap="round" stroke-linejoin="round"/>
<path d="M22.4584 36.75C22.4584 35.6224 23.3724 34.7084 24.5 34.7084C25.6277 34.7084 26.5417 35.6224 26.5417 36.75C26.5417 37.8777 25.6277 38.7917 24.5 38.7917C23.3724 38.7917 22.4584 37.8777 22.4584 36.75Z" stroke="#14181F" stroke-width="2" stroke-linecap="round" stroke-linejoin="round"/>
<path d="M10.2084 36.75C10.2084 35.6224 11.1225 34.7084 12.25 34.7084C13.3776 34.7084 14.2917 35.6224 14.2917 36.75C14.2917 37.8777 13.3776 38.7917 12.25 38.7917C11.1225 38.7917 10.2084 37.8777 10.2084 36.75Z" stroke="#14181F" stroke-width="2" stroke-linecap="round" stroke-linejoin="round"/>
<path d="M34.7084 24.5C34.7084 23.3724 35.6224 22.4584 36.75 22.4584C37.8777 22.4584 38.7917 23.3724 38.7917 24.5C38.7917 25.6277 37.8777 26.5417 36.75 26.5417C35.6224 26.5417 34.7084 25.6277 34.7084 24.5Z" stroke="#14181F" stroke-width="2" stroke-linecap="round" stroke-linejoin="round"/>
<path d="M22.4584 24.5C22.4584 23.3724 23.3724 22.4584 24.5 22.4584C25.6277 22.4584 26.5417 23.3724 26.5417 24.5C26.5417 25.6277 25.6277 26.5417 24.5 26.5417C23.3724 26.5417 22.4584 25.6277 22.4584 24.5Z" stroke="#14181F" stroke-width="2" stroke-linecap="round" stroke-linejoin="round"/>
<path d="M10.2084 24.5C10.2084 23.3724 11.1225 22.4584 12.25 22.4584C13.3776 22.4584 14.2917 23.3724 14.2917 24.5C14.2917 25.6277 13.3776 26.5417 12.25 26.5417C11.1225 26.5417 10.2084 25.6277 10.2084 24.5Z" stroke="#14181F" stroke-width="2" stroke-linecap="round" stroke-linejoin="round"/>
<path d="M34.7084 12.25C34.7084 11.1225 35.6224 10.2084 36.75 10.2084C37.8777 10.2084 38.7917 11.1225 38.7917 12.25C38.7917 13.3776 37.8777 14.2917 36.75 14.2917C35.6224 14.2917 34.7084 13.3776 34.7084 12.25Z" stroke="#14181F" stroke-width="2" stroke-linecap="round" stroke-linejoin="round"/>
<path d="M22.4584 12.25C22.4584 11.1225 23.3724 10.2084 24.5 10.2084C25.6277 10.2084 26.5417 11.1225 26.5417 12.25C26.5417 13.3776 25.6277 14.2917 24.5 14.2917C23.3724 14.2917 22.4584 13.3776 22.4584 12.25Z" stroke="#14181F" stroke-width="2" stroke-linecap="round" stroke-linejoin="round"/>
<path d="M10.2084 12.25C10.2084 11.1225 11.1225 10.2084 12.25 10.2084C13.3776 10.2084 14.2917 11.1225 14.2917 12.25C14.2917 13.3776 13.3776 14.2917 12.25 14.2917C11.1225 14.2917 10.2084 13.3776 10.2084 12.25Z" stroke="#14181F" stroke-width="2" stroke-linecap="round" stroke-linejoin="round"/>
<rect x="4.36841" y="30.1578" width="13.1842" height="13.1842" rx="6.59211" fill="white" stroke="black"/>
<line x1="7.73682" y1="36.8947" x2="14.1842" y2="36.8947" stroke="black"/>
<line x1="10.7899" y1="33.5262" x2="10.7899" y2="39.9736" stroke="black"/>
</svg>
