<svg width="4462" height="1427" viewBox="0 0 4462 1427" fill="none" xmlns="http://www.w3.org/2000/svg">
<g filter="url(#filter0_i_30_83)">
<rect y="27" width="1400" height="1400" rx="700" fill="url(#paint0_linear_30_83)" style="mix-blend-mode:exclusion"/>
<rect y="27" width="1400" height="1400" rx="700" fill="url(#paint1_radial_30_83)" fill-opacity="0.22" style="mix-blend-mode:lighten"/>
</g>
<rect x="0.5" y="27.5" width="1399" height="1399" rx="699.5" stroke="black"/>
<rect x="0.5" y="27.5" width="1399" height="1399" rx="699.5" stroke="#D23917"/>
<rect x="0.5" y="27.5" width="1399" height="1399" rx="699.5" stroke="#68EB3A" stroke-opacity="0.2"/>
<rect x="2958" y="855" width="1504" height="493" rx="101" fill="#9D3EF0"/>
<path d="M202 1066V387H302.5L334.5 444.5L418 387H617L701.5 438.5L784 387H1103L1198.5 457.5V1066H1066.5V509H767V1066H634V509H334.5V1066H202Z" fill="url(#paint2_radial_30_83)"/>
<path d="M202 1066V387H302.5L334.5 444.5L418 387H617L701.5 438.5L784 387H1103L1198.5 457.5V1066H1066.5V509H767V1066H634V509H334.5V1066H202Z" fill="#F5F5F5"/>
<path d="M202 1066V387H302.5L334.5 444.5L418 387H617L701.5 438.5L784 387H1103L1198.5 457.5V1066H1066.5V509H767V1066H634V509H334.5V1066H202Z" stroke="black"/>
<path d="M1525.5 1231.1C1522.3 1231.1 1519.2 1229.8 1516.2 1227.2C1513 1224.6 1511.7 1220.5 1512.3 1214.9C1512.7 1209.7 1514.1 1202.7 1516.5 1193.9C1518.9 1185.3 1521.9 1175.7 1525.5 1165.1C1529.1 1154.5 1533.1 1143.6 1537.5 1132.4C1541.9 1121 1546.3 1110 1550.7 1099.4C1555.1 1088.6 1559.3 1078.9 1563.3 1070.3C1567.3 1061.5 1570.7 1054.4 1573.5 1049C1575.3 1045.8 1577.8 1044.2 1581 1044.2C1583 1044.2 1584.7 1044.9 1586.1 1046.3C1587.5 1047.5 1588.2 1049.4 1588.2 1052C1588.2 1053.6 1587.6 1056.2 1586.4 1059.8C1585.2 1063.2 1583.7 1066.1 1581.9 1068.5C1579.1 1072.1 1576.1 1076.6 1572.9 1082C1569.7 1087.2 1566.7 1092.7 1563.9 1098.5C1574.3 1083.9 1585.2 1072.5 1596.6 1064.3C1608 1056.1 1620.4 1050.1 1633.8 1046.3C1635.8 1045.7 1637.7 1045.3 1639.5 1045.1C1641.3 1044.9 1643 1044.8 1644.6 1044.8C1652.8 1044.8 1658.6 1047.6 1662 1053.2C1665.6 1058.8 1667.4 1064.8 1667.4 1071.2C1667.4 1078.2 1665.9 1084 1662.9 1088.6C1657.5 1099.6 1651.2 1108.7 1644 1115.9C1636.8 1122.9 1629 1128.7 1620.6 1133.3C1612.4 1137.7 1603.8 1141.8 1594.8 1145.6C1590.4 1147.6 1586.5 1149 1583.1 1149.8C1579.9 1150.4 1577.1 1150.7 1574.7 1150.7C1571.1 1150.7 1568.6 1149.9 1567.2 1148.3C1565.8 1146.7 1565.1 1144.9 1565.1 1142.9C1565.1 1140.1 1565.9 1137.5 1567.5 1135.1C1569.1 1132.7 1570.6 1131.7 1572 1132.1C1573.4 1132.3 1575.1 1132.6 1577.1 1133C1579.1 1133.4 1581.2 1133.6 1583.4 1133.6C1588.6 1133.6 1593 1132.7 1596.6 1130.9C1602.4 1127.9 1608.4 1124.5 1614.6 1120.7C1621 1116.9 1627.2 1112 1633.2 1106C1639.4 1099.8 1644.8 1091.9 1649.4 1082.3C1650.6 1078.9 1651.2 1075.6 1651.2 1072.4C1651.2 1069 1650.3 1066.1 1648.5 1063.7C1646.9 1061.3 1644.1 1060.1 1640.1 1060.1C1633.5 1060.1 1625.1 1063.1 1614.9 1069.1C1604.7 1074.9 1594 1083.1 1582.8 1093.7C1571.6 1104.3 1561 1116.6 1551 1130.6C1546.6 1141.8 1542.5 1152.8 1538.7 1163.6C1535.1 1174.4 1532.2 1184 1530 1192.4C1527.8 1201 1526.5 1207.3 1526.1 1211.3C1525.9 1213.5 1527.1 1215.8 1529.7 1218.2C1532.3 1220.6 1533.6 1223 1533.6 1225.4C1533.6 1227 1532.6 1228.5 1530.6 1229.9C1529.6 1230.7 1527.9 1231.1 1525.5 1231.1ZM1710.41 1148.3C1709.21 1148.3 1708.01 1148.3 1706.81 1148.3C1705.61 1148.1 1704.41 1147.9 1703.21 1147.7C1695.01 1146.7 1688.61 1142.8 1684.01 1136C1679.61 1129 1677.41 1121.2 1677.41 1112.6C1677.41 1107 1678.51 1101.1 1680.71 1094.9C1683.11 1088.5 1686.81 1082.7 1691.81 1077.5C1696.81 1072.1 1702.61 1067.8 1709.21 1064.6C1715.81 1061.4 1722.51 1059.8 1729.31 1059.8C1732.71 1059.8 1735.91 1060.2 1738.91 1061C1742.11 1061.8 1743.71 1063.4 1743.71 1065.8C1743.71 1067.4 1742.81 1069 1741.01 1070.6C1739.41 1072 1737.21 1072.4 1734.41 1071.8C1733.61 1071.6 1732.31 1071.5 1730.51 1071.5C1725.71 1071.5 1720.81 1072.8 1715.81 1075.4C1710.81 1078 1706.31 1081.5 1702.31 1085.9C1698.31 1090.1 1695.41 1094.8 1693.61 1100C1692.21 1104 1691.51 1108 1691.51 1112C1691.51 1118.2 1692.91 1123.5 1695.71 1127.9C1698.71 1132.3 1702.11 1134.5 1705.91 1134.5C1706.91 1134.7 1707.81 1134.8 1708.61 1134.8C1709.61 1134.8 1710.51 1134.8 1711.31 1134.8C1720.11 1134.8 1728.51 1132.4 1736.51 1127.6C1744.71 1122.6 1751.01 1117.2 1755.41 1111.4C1757.61 1108 1759.11 1105 1759.91 1102.4C1760.71 1099.6 1761.11 1097.3 1761.11 1095.5C1761.11 1091.5 1759.91 1088.8 1757.51 1087.4C1755.11 1086 1752.91 1085.4 1750.91 1085.6C1747.71 1086 1744.61 1086.5 1741.61 1087.1C1738.61 1087.5 1736.01 1088.2 1733.81 1089.2C1732.61 1089.6 1731.71 1089.8 1731.11 1089.8C1729.11 1089.8 1727.41 1089 1726.01 1087.4C1724.81 1085.8 1724.21 1084.1 1724.21 1082.3C1724.21 1079.1 1725.71 1077 1728.71 1076C1731.51 1075 1734.81 1074.1 1738.61 1073.3C1742.41 1072.5 1746.31 1071.9 1750.31 1071.5C1751.11 1071.3 1751.81 1071.2 1752.41 1071.2C1753.01 1071.2 1753.71 1071.2 1754.51 1071.2C1761.71 1071.2 1767.31 1073.4 1771.31 1077.8C1775.31 1082 1777.31 1087.2 1777.31 1093.4C1777.31 1097.2 1776.41 1101.3 1774.61 1105.7C1772.81 1110.1 1769.91 1114.3 1765.91 1118.3C1762.31 1122.9 1757.71 1127.5 1752.11 1132.1C1746.51 1136.7 1740.21 1140.6 1733.21 1143.8C1726.21 1146.8 1718.61 1148.3 1710.41 1148.3ZM1913.47 1144.4C1905.67 1144 1899.37 1142 1894.57 1138.4C1889.77 1134.8 1885.87 1130.2 1882.87 1124.6C1880.07 1118.8 1877.57 1112.6 1875.37 1106C1873.37 1099.4 1871.17 1093 1868.77 1086.8C1866.57 1088.8 1863.57 1091.6 1859.77 1095.2C1856.17 1098.6 1852.27 1102.4 1848.07 1106.6C1843.87 1110.8 1839.87 1114.8 1836.07 1118.6C1832.27 1122.4 1829.17 1125.6 1826.77 1128.2C1822.97 1132.4 1818.67 1135.9 1813.87 1138.7C1809.27 1141.5 1805.17 1142.9 1801.57 1142.9C1798.77 1142.9 1796.37 1141.9 1794.37 1139.9C1792.57 1137.9 1791.67 1134.6 1791.67 1130C1791.67 1129 1791.67 1128 1791.67 1127C1791.87 1126 1792.07 1124.9 1792.27 1123.7C1794.07 1112.7 1795.77 1103.7 1797.37 1096.7C1798.97 1089.7 1800.77 1083.6 1802.77 1078.4C1804.97 1073 1807.47 1067.5 1810.27 1061.9C1812.07 1058.7 1814.57 1057.1 1817.77 1057.1C1819.57 1057.1 1821.17 1057.8 1822.57 1059.2C1823.97 1060.4 1824.67 1062.3 1824.67 1064.9C1824.67 1066.3 1824.07 1069 1822.87 1073C1821.67 1077 1820.27 1080.3 1818.67 1082.9C1816.67 1086.1 1814.17 1091.6 1811.17 1099.4C1808.37 1107.2 1806.77 1115.8 1806.37 1125.2C1812.57 1121.4 1818.97 1116.3 1825.57 1109.9C1832.17 1103.3 1838.87 1096.8 1845.67 1090.4C1852.67 1084 1859.57 1079.3 1866.37 1076.3C1868.17 1075.3 1869.97 1074.5 1871.77 1073.9C1873.57 1073.1 1875.17 1072.7 1876.57 1072.7C1878.37 1072.7 1879.77 1073.4 1880.77 1074.8C1881.97 1076.2 1882.67 1078.6 1882.87 1082C1883.07 1085.8 1883.77 1090.5 1884.97 1096.1C1886.37 1101.5 1888.27 1106.9 1890.67 1112.3C1893.27 1117.5 1896.37 1121.9 1899.97 1125.5C1903.77 1129.1 1908.27 1130.9 1913.47 1130.9C1917.47 1130.9 1921.37 1129.5 1925.17 1126.7C1928.97 1123.9 1932.37 1120.4 1935.37 1116.2C1938.37 1111.8 1940.47 1107.4 1941.67 1103C1942.67 1099.4 1943.27 1096.3 1943.47 1093.7C1943.87 1091.1 1944.07 1089 1944.07 1087.4C1944.07 1084 1943.67 1081.6 1942.87 1080.2C1942.27 1078.8 1941.97 1077.2 1941.97 1075.4C1941.97 1072.4 1942.87 1070.1 1944.67 1068.5C1946.47 1066.9 1948.37 1066.1 1950.37 1066.1C1953.17 1066.1 1955.77 1067.5 1958.17 1070.3C1960.77 1072.9 1962.07 1077.2 1962.07 1083.2C1962.07 1088.2 1961.07 1093.8 1959.07 1100C1956.47 1108 1952.57 1115.5 1947.37 1122.5C1942.17 1129.3 1936.57 1134.7 1930.57 1138.7C1924.57 1142.7 1918.87 1144.6 1913.47 1144.4ZM2020.89 1171.1C2019.29 1171.1 2017.39 1170.8 2015.19 1170.2C2002.99 1166.2 1994.09 1159.6 1988.49 1150.4C1982.89 1141 1980.09 1131.1 1980.09 1120.7C1980.09 1119.1 1980.09 1117.6 1980.09 1116.2C1980.29 1114.6 1980.49 1113.1 1980.69 1111.7C1982.49 1100.3 1986.29 1090.2 1992.09 1081.4C1998.09 1072.6 2004.79 1065.4 2012.19 1059.8C2019.79 1054 2026.69 1050.3 2032.89 1048.7C2036.89 1047.7 2040.89 1046.9 2044.89 1046.3C2048.89 1045.5 2052.79 1045.1 2056.59 1045.1C2066.19 1045.1 2074.39 1047.2 2081.19 1051.4C2087.99 1055.6 2091.39 1062.5 2091.39 1072.1C2091.39 1077.5 2089.69 1082.4 2086.29 1086.8C2083.09 1091.2 2078.99 1095 2073.99 1098.2C2069.19 1101.2 2064.49 1103.6 2059.89 1105.4C2052.89 1108.2 2044.89 1110.3 2035.89 1111.7C2027.09 1113.1 2018.79 1113.8 2010.99 1113.8C2005.99 1113.8 2001.39 1113.5 1997.19 1112.9V1113.2C1997.19 1114 1997.09 1114.8 1996.89 1115.6C1996.69 1116.2 1996.59 1116.9 1996.59 1117.7C1996.39 1118.5 1996.29 1119.3 1996.29 1120.1C1996.29 1120.7 1996.29 1121.3 1996.29 1121.9C1996.29 1128.1 1997.49 1133.6 1999.89 1138.4C2002.49 1143 2005.49 1147 2008.89 1150.4C2012.29 1153.6 2015.09 1156.2 2017.29 1158.2C2020.89 1160 2023.39 1161.7 2024.79 1163.3C2026.39 1165.1 2027.19 1166.5 2027.19 1167.5C2027.19 1169.9 2025.09 1171.1 2020.89 1171.1ZM2019.09 1100.3C2025.09 1100.3 2031.39 1099.9 2037.99 1099.1C2044.59 1098.1 2050.69 1096.3 2056.29 1093.7C2060.69 1091.5 2064.79 1088.6 2068.59 1085C2072.39 1081.2 2074.29 1076.7 2074.29 1071.5C2074.29 1067.5 2072.69 1064.5 2069.49 1062.5C2066.29 1060.5 2061.79 1059.5 2055.99 1059.5C2049.39 1059.5 2042.19 1060.7 2034.39 1063.1C2031.59 1063.9 2028.09 1065.8 2023.89 1068.8C2019.89 1071.8 2015.79 1075.9 2011.59 1081.1C2007.39 1086.1 2003.89 1092.1 2001.09 1099.1C2003.49 1099.3 2006.19 1099.6 2009.19 1100C2012.39 1100.2 2015.69 1100.3 2019.09 1100.3ZM2114.55 1149.2C2112.75 1149.2 2111.05 1148.5 2109.45 1147.1C2108.05 1145.5 2107.35 1142.9 2107.35 1139.3C2107.35 1138.5 2107.35 1137.7 2107.35 1136.9C2107.55 1135.9 2107.75 1134.9 2107.95 1133.9C2109.75 1125.1 2112.05 1115.8 2114.85 1106C2117.85 1096.2 2120.85 1087 2123.85 1078.4C2126.85 1069.6 2129.05 1062.7 2130.45 1057.7C2131.45 1054.5 2132.85 1052.2 2134.65 1050.8C2136.65 1049.4 2138.65 1048.7 2140.65 1048.7C2142.85 1048.7 2144.65 1049.4 2146.05 1050.8C2147.65 1052 2148.45 1053.7 2148.45 1055.9C2148.45 1057.7 2147.85 1059.7 2146.65 1061.9C2145.45 1064.1 2143.95 1067.6 2142.15 1072.4C2140.55 1077.2 2138.95 1082 2137.35 1086.8C2135.75 1091.6 2134.35 1095.2 2133.15 1097.6C2140.15 1090.8 2146.45 1085.2 2152.05 1080.8C2157.65 1076.4 2165.05 1072.1 2174.25 1067.9C2178.25 1065.9 2183.45 1064.9 2189.85 1064.9C2194.45 1064.9 2199.05 1065.8 2203.65 1067.6C2208.25 1069.4 2212.05 1072.6 2215.05 1077.2C2218.05 1081.8 2219.55 1088.3 2219.55 1096.7C2219.55 1099.9 2217.75 1101.5 2214.15 1101.5C2212.75 1101.5 2211.25 1100.9 2209.65 1099.7C2208.25 1098.5 2207.05 1096.5 2206.05 1093.7C2204.65 1089.1 2202.45 1085.5 2199.45 1082.9C2196.65 1080.1 2192.95 1078.7 2188.35 1078.7C2185.55 1078.7 2182.35 1079.3 2178.75 1080.5C2174.35 1081.9 2168.85 1084.6 2162.25 1088.6C2155.65 1092.4 2148.85 1097.2 2141.85 1103C2135.05 1108.8 2128.75 1115.4 2122.95 1122.8C2122.95 1124.2 2122.65 1125.8 2122.05 1127.6C2121.65 1129.4 2121.45 1131.4 2121.45 1133.6C2121.45 1134 2121.65 1135 2122.05 1136.6C2122.45 1138.2 2122.65 1139.8 2122.65 1141.4C2122.65 1143.6 2121.75 1145.5 2119.95 1147.1C2118.35 1148.5 2116.55 1149.2 2114.55 1149.2ZM2275.48 1171.1C2273.88 1171.1 2271.98 1170.8 2269.78 1170.2C2257.58 1166.2 2248.68 1159.6 2243.08 1150.4C2237.48 1141 2234.68 1131.1 2234.68 1120.7C2234.68 1119.1 2234.68 1117.6 2234.68 1116.2C2234.88 1114.6 2235.08 1113.1 2235.28 1111.7C2237.08 1100.3 2240.88 1090.2 2246.68 1081.4C2252.68 1072.6 2259.38 1065.4 2266.78 1059.8C2274.38 1054 2281.28 1050.3 2287.48 1048.7C2291.48 1047.7 2295.48 1046.9 2299.48 1046.3C2303.48 1045.5 2307.38 1045.1 2311.18 1045.1C2320.78 1045.1 2328.98 1047.2 2335.78 1051.4C2342.58 1055.6 2345.98 1062.5 2345.98 1072.1C2345.98 1077.5 2344.28 1082.4 2340.88 1086.8C2337.68 1091.2 2333.58 1095 2328.58 1098.2C2323.78 1101.2 2319.08 1103.6 2314.48 1105.4C2307.48 1108.2 2299.48 1110.3 2290.48 1111.7C2281.68 1113.1 2273.38 1113.8 2265.58 1113.8C2260.58 1113.8 2255.98 1113.5 2251.78 1112.9V1113.2C2251.78 1114 2251.68 1114.8 2251.48 1115.6C2251.28 1116.2 2251.18 1116.9 2251.18 1117.7C2250.98 1118.5 2250.88 1119.3 2250.88 1120.1C2250.88 1120.7 2250.88 1121.3 2250.88 1121.9C2250.88 1128.1 2252.08 1133.6 2254.48 1138.4C2257.08 1143 2260.08 1147 2263.48 1150.4C2266.88 1153.6 2269.68 1156.2 2271.88 1158.2C2275.48 1160 2277.98 1161.7 2279.38 1163.3C2280.98 1165.1 2281.78 1166.5 2281.78 1167.5C2281.78 1169.9 2279.68 1171.1 2275.48 1171.1ZM2273.68 1100.3C2279.68 1100.3 2285.98 1099.9 2292.58 1099.1C2299.18 1098.1 2305.28 1096.3 2310.88 1093.7C2315.28 1091.5 2319.38 1088.6 2323.18 1085C2326.98 1081.2 2328.88 1076.7 2328.88 1071.5C2328.88 1067.5 2327.28 1064.5 2324.08 1062.5C2320.88 1060.5 2316.38 1059.5 2310.58 1059.5C2303.98 1059.5 2296.78 1060.7 2288.98 1063.1C2286.18 1063.9 2282.68 1065.8 2278.48 1068.8C2274.48 1071.8 2270.38 1075.9 2266.18 1081.1C2261.98 1086.1 2258.48 1092.1 2255.68 1099.1C2258.08 1099.3 2260.78 1099.6 2263.78 1100C2266.98 1100.2 2270.28 1100.3 2273.68 1100.3ZM2411.67 1151.3C2400.67 1151.3 2391.07 1149.4 2382.87 1145.6C2374.87 1141.8 2368.57 1136.9 2363.97 1130.9C2359.57 1124.7 2357.37 1118.1 2357.37 1111.1C2357.37 1107.5 2357.97 1103.8 2359.17 1100C2360.57 1096.2 2362.67 1092.6 2365.47 1089.2C2369.07 1084.6 2373.57 1079.6 2378.97 1074.2C2384.57 1068.8 2390.87 1063.7 2397.87 1058.9C2405.07 1054.1 2412.97 1050.2 2421.57 1047.2C2430.17 1044 2439.37 1042.4 2449.17 1042.4C2456.37 1042.4 2461.27 1043 2463.87 1044.2C2466.67 1045.4 2468.57 1047 2469.57 1049C2470.57 1050.8 2471.77 1052.6 2473.17 1054.4C2475.57 1046.8 2478.37 1038.8 2481.57 1030.4C2484.77 1022 2487.87 1014.1 2490.87 1006.7C2493.87 999.3 2496.27 993.3 2498.07 988.7C2499.27 986.1 2500.67 983 2502.27 979.4C2504.07 975.6 2505.57 972.3 2506.77 969.5C2508.17 966.5 2508.87 965 2508.87 965C2510.27 961.6 2512.87 959.9 2516.67 959.9C2519.47 959.9 2522.07 960.9 2524.47 962.9C2526.87 964.9 2528.07 967.3 2528.07 970.1C2528.07 972.1 2527.27 974.2 2525.67 976.4H2525.37C2525.37 976.4 2524.47 977.4 2522.67 979.4C2520.87 981.2 2518.87 983.5 2516.67 986.3C2514.67 989.1 2513.17 991.7 2512.17 994.1C2509.77 1000.1 2506.77 1007.2 2503.17 1015.4C2499.77 1023.4 2496.27 1032.2 2492.67 1041.8C2489.07 1051.4 2485.87 1061.2 2483.07 1071.2C2480.47 1081 2478.87 1090.7 2478.27 1100.3C2478.07 1101.7 2477.37 1102.8 2476.17 1103.6C2474.97 1104.4 2473.57 1104.8 2471.97 1104.8C2469.77 1104.8 2467.77 1104.3 2465.97 1103.3C2464.17 1102.1 2463.47 1100.5 2463.87 1098.5C2464.87 1095.7 2465.47 1092.9 2465.67 1090.1C2466.07 1087.1 2466.27 1084.3 2466.27 1081.7C2466.27 1076.1 2465.37 1071.3 2463.57 1067.3C2461.97 1063.1 2459.37 1060.5 2455.77 1059.5C2454.17 1058.9 2452.47 1058.5 2450.67 1058.3C2448.87 1058.1 2447.07 1058 2445.27 1058C2438.87 1058 2432.37 1059.5 2425.77 1062.5C2419.17 1065.3 2412.87 1069 2406.87 1073.6C2401.07 1078 2395.77 1082.6 2390.97 1087.4C2386.17 1092.2 2382.37 1096.6 2379.57 1100.6C2376.77 1104.4 2375.37 1108.5 2375.37 1112.9C2375.37 1118.1 2377.87 1123.1 2382.87 1127.9C2387.87 1132.5 2396.47 1135.3 2408.67 1136.3C2409.67 1136.5 2410.67 1136.6 2411.67 1136.6C2412.67 1136.6 2413.77 1136.6 2414.97 1136.6C2423.17 1136.6 2431.67 1135.6 2440.47 1133.6C2449.47 1131.4 2457.37 1128.9 2464.17 1126.1C2469.57 1123.9 2474.37 1121.3 2478.57 1118.3C2482.77 1115.3 2486.47 1112.4 2489.67 1109.6C2491.27 1108.2 2492.97 1107.5 2494.77 1107.5C2496.57 1107.5 2498.07 1108.2 2499.27 1109.6C2500.67 1110.8 2501.37 1112.2 2501.37 1113.8C2501.37 1115.8 2500.47 1117.6 2498.67 1119.2C2495.47 1122 2491.37 1125.4 2486.37 1129.4C2481.57 1133.2 2475.77 1136.5 2468.97 1139.3C2460.97 1142.5 2451.67 1145.3 2441.07 1147.7C2430.47 1150.1 2420.67 1151.3 2411.67 1151.3ZM2626.58 1157.3C2621.18 1157.3 2616.08 1156.6 2611.28 1155.2C2606.48 1154 2602.18 1151.8 2598.38 1148.6C2596.98 1147.2 2596.28 1145.3 2596.28 1142.9C2596.28 1140.1 2597.18 1137.4 2598.98 1134.8C2600.98 1132.2 2603.08 1130.9 2605.28 1130.9C2606.48 1130.9 2607.68 1131.5 2608.88 1132.7C2610.08 1134.1 2611.48 1135.8 2613.08 1137.8C2614.88 1139.8 2617.38 1141.3 2620.58 1142.3C2621.58 1142.5 2622.68 1142.7 2623.88 1142.9C2625.08 1142.9 2626.38 1142.9 2627.78 1142.9C2630.78 1142.9 2633.88 1142.7 2637.08 1142.3C2640.48 1141.9 2643.18 1141.5 2645.18 1141.1C2654.78 1138.7 2664.28 1135 2673.68 1130C2683.08 1125 2691.58 1119.2 2699.18 1112.6C2706.78 1106 2712.88 1098.9 2717.48 1091.3C2722.08 1083.7 2724.38 1076 2724.38 1068.2C2724.38 1062.4 2721.68 1059.5 2716.28 1059.5C2713.08 1059.5 2708.88 1060.3 2703.68 1061.9C2698.48 1063.5 2693.08 1065.6 2687.48 1068.2C2681.88 1070.8 2676.58 1073.7 2671.58 1076.9C2663.38 1082.3 2656.38 1088 2650.58 1094C2644.78 1100 2638.78 1106.2 2632.58 1112.6C2631.38 1113.8 2629.78 1114.4 2627.78 1114.4C2625.78 1114.4 2623.88 1113.9 2622.08 1112.9C2620.28 1111.7 2619.38 1110.1 2619.38 1108.1C2619.38 1106.5 2620.08 1104.9 2621.48 1103.3C2624.68 1099.3 2627.98 1093.5 2631.38 1085.9C2634.78 1078.3 2638.08 1069.9 2641.28 1060.7C2644.68 1051.5 2647.88 1042.5 2650.88 1033.7C2653.88 1024.7 2656.68 1016.8 2659.28 1010C2662.48 1001.4 2665.08 993.2 2667.08 985.4C2669.08 977.6 2671.08 970.8 2673.08 965C2674.08 962 2676.18 960.5 2679.38 960.5C2681.58 960.5 2683.68 961.3 2685.68 962.9C2687.88 964.3 2688.98 966.2 2688.98 968.6C2688.98 968.8 2688.88 969.2 2688.68 969.8C2688.68 970.2 2688.68 970.6 2688.68 971V971.3C2685.68 979.9 2682.18 989.2 2678.18 999.2C2674.18 1009 2669.48 1020.4 2664.08 1033.4C2658.88 1046.4 2652.78 1061.7 2645.78 1079.3C2649.98 1075.5 2654.68 1071.7 2659.88 1067.9C2665.08 1063.9 2671.08 1060.3 2677.88 1057.1C2683.48 1054.3 2689.98 1051.6 2697.38 1049C2704.78 1046.2 2711.18 1044.8 2716.58 1044.8C2724.78 1044.8 2730.58 1047.6 2733.98 1053.2C2737.38 1058.6 2739.08 1064.5 2739.08 1070.9C2739.08 1080.1 2736.18 1089.3 2730.38 1098.5C2724.78 1107.7 2717.28 1116.2 2707.88 1124C2698.48 1131.8 2688.18 1138.5 2676.98 1144.1C2665.78 1149.5 2654.68 1153.3 2643.68 1155.5C2638.08 1156.7 2632.38 1157.3 2626.58 1157.3ZM2773.69 1227.8C2770.29 1227.8 2767.09 1227.4 2764.09 1226.6C2760.09 1225.4 2756.89 1223.3 2754.49 1220.3C2752.09 1217.3 2750.89 1214.2 2750.89 1211C2750.89 1207.6 2751.09 1205.3 2751.49 1204.1C2751.89 1202.9 2752.79 1202.3 2754.19 1202.3C2755.39 1202.3 2757.49 1202.6 2760.49 1203.2C2762.09 1203.2 2763.69 1204.5 2765.29 1207.1C2766.89 1209.9 2768.69 1211.8 2770.69 1212.8C2773.29 1213.8 2775.49 1214.3 2777.29 1214.3C2780.89 1214.3 2784.19 1213.4 2787.19 1211.6C2790.39 1209.8 2793.09 1207.9 2795.29 1205.9C2802.49 1199.7 2808.69 1193.3 2813.89 1186.7C2819.09 1180.1 2823.89 1172.6 2828.29 1164.2C2832.89 1156 2837.39 1146.4 2841.79 1135.4C2843.19 1132.2 2844.49 1128.5 2845.69 1124.3C2847.09 1119.9 2848.19 1115.8 2848.99 1112C2849.99 1108 2850.39 1105.1 2850.19 1103.3C2849.19 1104.1 2848.09 1105 2846.89 1106C2845.89 1107 2844.79 1108 2843.59 1109C2838.99 1113.2 2833.49 1117.4 2827.09 1121.6C2820.89 1125.8 2814.29 1129.3 2807.29 1132.1C2800.29 1134.9 2793.09 1136.3 2785.69 1136.3C2779.09 1136.3 2772.89 1135 2767.09 1132.4C2760.29 1129.2 2755.49 1125 2752.69 1119.8C2749.89 1114.6 2748.49 1109.1 2748.49 1103.3C2748.49 1100.5 2748.69 1097.8 2749.09 1095.2C2749.69 1092.6 2750.39 1090 2751.19 1087.4C2752.79 1081.8 2755.69 1076.7 2759.89 1072.1C2764.09 1067.3 2768.79 1063.3 2773.99 1060.1C2779.19 1056.9 2784.19 1054.8 2788.99 1053.8C2789.39 1053.6 2789.89 1053.5 2790.49 1053.5C2791.09 1053.5 2791.59 1053.5 2791.99 1053.5C2794.79 1053.5 2797.09 1054.3 2798.89 1055.9C2800.69 1057.3 2801.59 1058.8 2801.59 1060.4C2801.59 1062.4 2800.19 1064 2797.39 1065.2C2792.59 1067 2788.29 1068.8 2784.49 1070.6C2780.89 1072.4 2777.69 1074.8 2774.89 1077.8C2772.29 1080.8 2769.89 1085.2 2767.69 1091C2767.09 1092.6 2766.59 1094.5 2766.19 1096.7C2765.79 1098.9 2765.59 1101.2 2765.59 1103.6C2765.59 1107.4 2766.19 1111.1 2767.39 1114.7C2768.79 1118.3 2771.09 1120.6 2774.29 1121.6C2778.29 1122.8 2782.19 1123.4 2785.99 1123.4C2794.79 1123.4 2803.39 1121.1 2811.79 1116.5C2820.39 1111.7 2827.89 1106.6 2834.29 1101.2C2843.09 1094.2 2848.69 1088.4 2851.09 1083.8C2853.69 1079 2855.49 1074.9 2856.49 1071.5C2857.09 1069.3 2858.19 1067.8 2859.79 1067C2861.39 1066 2863.09 1065.5 2864.89 1065.5C2867.09 1065.5 2869.09 1066.3 2870.89 1067.9C2872.89 1069.3 2873.49 1071.2 2872.69 1073.6C2869.69 1084.6 2866.49 1096.7 2863.09 1109.9C2859.89 1123.1 2855.69 1136.4 2850.49 1149.8C2845.49 1163.2 2838.89 1175.9 2830.69 1187.9C2822.49 1200.1 2811.99 1210.7 2799.19 1219.7C2795.99 1221.9 2792.19 1223.8 2787.79 1225.4C2783.39 1227 2778.69 1227.8 2773.69 1227.8Z" fill="white"/>
<path d="M1570.28 727V317.909H1694.13V393.016H1698.66C1707.18 368.158 1721.56 348.538 1741.8 334.156C1762.04 319.773 1786.19 312.582 1814.25 312.582C1842.65 312.582 1866.98 319.862 1887.22 334.422C1907.46 348.982 1920.34 368.513 1925.84 393.016H1930.1C1937.74 368.69 1952.65 349.248 1974.85 334.688C1997.04 319.951 2023.23 312.582 2053.41 312.582C2092.12 312.582 2123.55 325.011 2147.7 349.869C2171.84 374.55 2183.92 408.463 2183.92 451.609V727H2053.68V481.439C2053.68 461.02 2048.44 445.484 2037.97 434.83C2027.49 423.999 2013.91 418.584 1997.22 418.584C1979.28 418.584 1965.17 424.443 1954.87 436.162C1944.75 447.703 1939.69 463.239 1939.69 482.771V727H1814.51V480.107C1814.51 461.109 1809.36 446.105 1799.06 435.097C1788.77 424.088 1775.18 418.584 1758.31 418.584C1746.95 418.584 1736.92 421.336 1728.22 426.84C1719.52 432.167 1712.68 439.802 1707.71 449.745C1702.92 459.688 1700.52 471.407 1700.52 484.901V727H1570.28ZM2264.62 727V317.909H2394.86V727H2264.62ZM2329.87 270.235C2311.58 270.235 2295.87 264.198 2282.73 252.124C2269.59 239.873 2263.02 225.136 2263.02 207.913C2263.02 190.867 2269.59 176.308 2282.73 164.234C2295.87 151.982 2311.58 145.857 2329.87 145.857C2348.34 145.857 2364.05 151.982 2377.01 164.234C2390.15 176.308 2396.72 190.867 2396.72 207.913C2396.72 225.136 2390.15 239.873 2377.01 252.124C2364.05 264.198 2348.34 270.235 2329.87 270.235ZM2607.99 493.69V727H2477.75V317.909H2601.6V393.016H2606.13C2615.18 367.98 2630.63 348.36 2652.47 334.156C2674.31 319.773 2700.32 312.582 2730.5 312.582C2759.27 312.582 2784.22 319.063 2805.35 332.025C2826.65 344.809 2843.16 362.742 2854.88 385.825C2866.78 408.729 2872.64 435.54 2872.46 466.258V727H2742.22V491.826C2742.4 469.099 2736.63 451.343 2724.91 438.559C2713.37 425.775 2697.3 419.383 2676.71 419.383C2663.03 419.383 2650.96 422.401 2640.48 428.438C2630.19 434.298 2622.2 442.732 2616.51 453.74C2611.01 464.749 2608.17 478.065 2607.99 493.69ZM3184.01 317.909V413.79H2925.93V317.909H3184.01ZM2979.99 219.898H3110.23V598.36C3110.23 606.35 3111.48 612.831 3113.96 617.803C3116.62 622.597 3120.44 626.059 3125.41 628.19C3130.38 630.143 3136.33 631.119 3143.26 631.119C3148.23 631.119 3153.47 630.675 3158.97 629.788C3164.65 628.722 3168.91 627.835 3171.76 627.124L3191.46 721.141C3185.25 722.916 3176.46 725.136 3165.1 727.799C3153.91 730.462 3140.51 732.149 3124.88 732.859C3094.34 734.28 3068.15 730.729 3046.31 722.206C3024.65 713.506 3008.05 700.011 2996.51 681.723C2985.14 663.435 2979.64 640.441 2979.99 612.742V219.898Z" fill="#C05BFF"/>
<path d="M3250.46 727V317.909H3374.3V393.016H3378.83C3387.35 368.158 3401.74 348.538 3421.98 334.156C3442.22 319.773 3466.37 312.582 3494.42 312.582C3522.83 312.582 3547.16 319.862 3567.4 334.422C3587.64 348.982 3600.51 368.513 3606.02 393.016H3610.28C3617.91 368.69 3632.83 349.248 3655.02 334.688C3677.22 319.951 3703.41 312.582 3733.59 312.582C3772.3 312.582 3803.72 325.011 3827.87 349.869C3852.02 374.55 3864.09 408.463 3864.09 451.609V727H3733.86V481.439C3733.86 461.02 3728.62 445.484 3718.14 434.83C3707.67 423.999 3694.08 418.584 3677.39 418.584C3659.46 418.584 3645.34 424.443 3635.05 436.162C3624.93 447.703 3619.86 463.239 3619.86 482.771V727H3494.69V480.107C3494.69 461.109 3489.54 446.105 3479.24 435.097C3468.94 424.088 3455.36 418.584 3438.49 418.584C3427.13 418.584 3417.09 421.336 3408.39 426.84C3399.69 432.167 3392.86 439.802 3387.89 449.745C3383.09 459.688 3380.7 471.407 3380.7 484.901V727H3250.46ZM4136.02 734.724C4093.23 734.724 4056.3 726.29 4025.23 709.422C3994.33 692.376 3970.54 668.14 3953.85 636.712C3937.34 605.107 3929.08 567.554 3929.08 524.053C3929.08 481.794 3937.43 444.862 3954.12 413.257C3970.81 381.474 3994.33 356.794 4024.69 339.216C4055.06 321.46 4090.83 312.582 4132.03 312.582C4161.15 312.582 4187.78 317.11 4211.93 326.165C4236.08 335.221 4256.94 348.626 4274.52 366.382C4292.09 384.138 4305.77 406.066 4315.53 432.167C4325.3 458.09 4330.18 487.831 4330.18 521.389V553.882H3974.62V478.243H4209C4208.82 464.393 4205.54 452.053 4199.14 441.222C4192.75 430.391 4183.96 421.957 4172.78 415.92C4161.77 409.706 4149.07 406.599 4134.69 406.599C4120.13 406.599 4107.08 409.884 4095.54 416.453C4084 422.845 4074.85 431.634 4068.11 442.82C4061.36 453.829 4057.81 466.347 4057.45 480.374V557.344C4057.45 574.035 4060.74 588.683 4067.31 601.29C4073.88 613.719 4083.2 623.396 4095.27 630.32C4107.35 637.245 4121.73 640.707 4138.42 640.707C4149.96 640.707 4160.44 639.109 4169.85 635.913C4179.26 632.717 4187.34 628.012 4194.08 621.798C4200.83 615.583 4205.89 607.948 4209.26 598.893L4328.85 602.355C4323.88 629.166 4312.96 652.515 4296.09 672.401C4279.4 692.11 4257.47 707.469 4230.31 718.477C4203.14 729.308 4171.71 734.724 4136.02 734.724Z" fill="white"/>
<path d="M3047 1229V988H3080L3090.5 1007.5L3127.5 988H3195.5L3249.5 1020.5V1229H3204.5V1027H3090.5V1229H3047Z" fill="white" stroke="black"/>
<path d="M3296 1229V991H3340V1229H3296Z" fill="white" stroke="black"/>
<path d="M3296 930V887H3340V930H3296Z" fill="white" stroke="black"/>
<path d="M3416.5 990.5V912.5L3459 887H3517V919.5H3459V990.5H3517V1029.5H3459V1229H3416.5V1029.5H3372V990.5H3416.5Z" fill="white" stroke="black"/>
<path d="M3593 991V950.5L3636.5 926V991H3692.5V1028H3636.5V1189.5H3692.5V1229H3648.5L3593 1195.5V1028H3549V991H3593Z" fill="white" stroke="black"/>
<path d="M3986 1229V991H4019L4029.5 1011L4065.5 991H4116.5V1031H4029.5V1229H3986Z" fill="white" stroke="black"/>
<path d="M4240 1218.5L4148 991H4192L4263.5 1163L4332 991H4373L4244 1317H4202.5L4240 1218.5Z" fill="white" stroke="black"/>
<path fill-rule="evenodd" clip-rule="evenodd" d="M3792.5 987L3739 1018V1196L3792.5 1229H3885L3939.5 1196V1018L3885 987H3792.5ZM3895 1026H3783V1190H3895V1026Z" fill="white"/>
<path d="M3739 1018L3738.75 1017.57L3738.5 1017.71V1018H3739ZM3792.5 987V986.5H3792.37L3792.25 986.567L3792.5 987ZM3739 1196H3738.5V1196.28L3738.74 1196.43L3739 1196ZM3792.5 1229L3792.24 1229.43L3792.36 1229.5H3792.5V1229ZM3885 1229V1229.5H3885.14L3885.26 1229.43L3885 1229ZM3939.5 1196L3939.76 1196.43L3940 1196.28V1196H3939.5ZM3939.5 1018H3940V1017.71L3939.75 1017.57L3939.5 1018ZM3885 987L3885.25 986.565L3885.13 986.5H3885V987ZM3783 1026V1025.5H3782.5V1026H3783ZM3895 1026H3895.5V1025.5H3895V1026ZM3783 1190H3782.5V1190.5H3783V1190ZM3895 1190V1190.5H3895.5V1190H3895ZM3739.25 1018.43L3792.75 987.433L3792.25 986.567L3738.75 1017.57L3739.25 1018.43ZM3739.5 1196V1018H3738.5V1196H3739.5ZM3792.76 1228.57L3739.26 1195.57L3738.74 1196.43L3792.24 1229.43L3792.76 1228.57ZM3885 1228.5H3792.5V1229.5H3885V1228.5ZM3939.24 1195.57L3884.74 1228.57L3885.26 1229.43L3939.76 1196.43L3939.24 1195.57ZM3939 1018V1196H3940V1018H3939ZM3884.75 987.435L3939.25 1018.43L3939.75 1017.57L3885.25 986.565L3884.75 987.435ZM3792.5 987.5H3885V986.5H3792.5V987.5ZM3783 1026.5H3895V1025.5H3783V1026.5ZM3783.5 1190V1026H3782.5V1190H3783.5ZM3895 1189.5H3783V1190.5H3895V1189.5ZM3894.5 1026V1190H3895.5V1026H3894.5ZM3782.5 1027.5V1188.5H3783.5V1027.5H3782.5Z" fill="black"/>
<defs>
<filter id="filter0_i_30_83" x="0" y="27" width="1400" height="1404" filterUnits="userSpaceOnUse" color-interpolation-filters="sRGB">
<feFlood flood-opacity="0" result="BackgroundImageFix"/>
<feBlend mode="normal" in="SourceGraphic" in2="BackgroundImageFix" result="shape"/>
<feColorMatrix in="SourceAlpha" type="matrix" values="0 0 0 0 0 0 0 0 0 0 0 0 0 0 0 0 0 0 127 0" result="hardAlpha"/>
<feOffset dy="4"/>
<feGaussianBlur stdDeviation="2"/>
<feComposite in2="hardAlpha" operator="arithmetic" k2="-1" k3="1"/>
<feColorMatrix type="matrix" values="0 0 0 0 0 0 0 0 0 0 0 0 0 0 0 0 0 0 0.25 0"/>
<feBlend mode="normal" in2="shape" result="effect1_innerShadow_30_83"/>
</filter>
<linearGradient id="paint0_linear_30_83" x1="700" y1="27" x2="700" y2="1427" gradientUnits="userSpaceOnUse">
<stop stop-color="#A01DF1"/>
<stop offset="1" stop-color="#1D4CF1" stop-opacity="0.65"/>
</linearGradient>
<radialGradient id="paint1_radial_30_83" cx="0" cy="0" r="1" gradientUnits="userSpaceOnUse" gradientTransform="translate(994.27 352.12) rotate(133.087) scale(597.035 596.364)">
<stop stop-color="#FFF500"/>
<stop offset="1" stop-color="#A78613" stop-opacity="0"/>
</radialGradient>
<radialGradient id="paint2_radial_30_83" cx="0" cy="0" r="1" gradientUnits="userSpaceOnUse" gradientTransform="translate(700 486.5) rotate(90) scale(1155 1695.08)">
<stop stop-color="#9B1CF1"/>
<stop offset="1" stop-color="#D9D9D9" stop-opacity="0.23"/>
</radialGradient>
</defs>
</svg>
