<svg width="4397" height="1400" viewBox="0 0 4397 1400" fill="none" xmlns="http://www.w3.org/2000/svg">
<g filter="url(#filter0_i_30_59)">
<rect width="1400" height="1400" rx="700" fill="url(#paint0_linear_30_59)" style="mix-blend-mode:exclusion"/>
<rect width="1400" height="1400" rx="700" fill="url(#paint1_radial_30_59)" fill-opacity="0.22" style="mix-blend-mode:lighten"/>
</g>
<rect x="0.5" y="0.5" width="1399" height="1399" rx="699.5" stroke="black"/>
<rect x="0.5" y="0.5" width="1399" height="1399" rx="699.5" stroke="#D23917"/>
<rect x="0.5" y="0.5" width="1399" height="1399" rx="699.5" stroke="#68EB3A" stroke-opacity="0.2"/>
<path d="M202 1039V360H302.5L334.5 417.5L418 360H617L701.5 411.5L784 360H1103L1198.5 430.5V1039H1066.5V482H767V1039H634V482H334.5V1039H202Z" fill="url(#paint2_radial_30_59)"/>
<path d="M202 1039V360H302.5L334.5 417.5L418 360H617L701.5 411.5L784 360H1103L1198.5 430.5V1039H1066.5V482H767V1039H634V482H334.5V1039H202Z" fill="#F5F5F5"/>
<path d="M202 1039V360H302.5L334.5 417.5L418 360H617L701.5 411.5L784 360H1103L1198.5 430.5V1039H1066.5V482H767V1039H634V482H334.5V1039H202Z" stroke="black"/>
<path d="M1505.28 924V514.909H1629.13V590.016H1633.66C1642.18 565.158 1656.56 545.538 1676.8 531.156C1697.04 516.773 1721.19 509.582 1749.25 509.582C1777.65 509.582 1801.98 516.862 1822.22 531.422C1842.46 545.982 1855.34 565.513 1860.84 590.016H1865.1C1872.74 565.69 1887.65 546.248 1909.85 531.688C1932.04 516.951 1958.23 509.582 1988.41 509.582C2027.12 509.582 2058.55 522.011 2082.7 546.869C2106.84 571.55 2118.92 605.463 2118.92 648.609V924H1988.68V678.439C1988.68 658.02 1983.44 642.484 1972.97 631.83C1962.49 620.999 1948.91 615.584 1932.22 615.584C1914.28 615.584 1900.17 621.443 1889.87 633.162C1879.75 644.703 1874.69 660.239 1874.69 679.771V924H1749.51V677.107C1749.51 658.109 1744.36 643.105 1734.06 632.097C1723.77 621.088 1710.18 615.584 1693.31 615.584C1681.95 615.584 1671.92 618.336 1663.22 623.84C1654.52 629.167 1647.68 636.802 1642.71 646.745C1637.92 656.688 1635.52 668.407 1635.52 681.901V924H1505.28ZM2199.62 924V514.909H2329.86V924H2199.62ZM2264.87 467.235C2246.58 467.235 2230.87 461.198 2217.73 449.124C2204.59 436.873 2198.02 422.136 2198.02 404.913C2198.02 387.867 2204.59 373.308 2217.73 361.234C2230.87 348.982 2246.58 342.857 2264.87 342.857C2283.34 342.857 2299.05 348.982 2312.01 361.234C2325.15 373.308 2331.72 387.867 2331.72 404.913C2331.72 422.136 2325.15 436.873 2312.01 449.124C2299.05 461.198 2283.34 467.235 2264.87 467.235ZM2542.99 690.69V924H2412.75V514.909H2536.6V590.016H2541.13C2550.18 564.98 2565.63 545.36 2587.47 531.156C2609.31 516.773 2635.32 509.582 2665.5 509.582C2694.27 509.582 2719.22 516.063 2740.35 529.025C2761.65 541.809 2778.16 559.742 2789.88 582.825C2801.78 605.729 2807.64 632.54 2807.46 663.258V924H2677.22V688.826C2677.4 666.099 2671.63 648.343 2659.91 635.559C2648.37 622.775 2632.3 616.383 2611.71 616.383C2598.03 616.383 2585.96 619.401 2575.48 625.438C2565.19 631.298 2557.2 639.732 2551.51 650.74C2546.01 661.749 2543.17 675.065 2542.99 690.69ZM3119.01 514.909V610.79H2860.93V514.909H3119.01ZM2914.99 416.898H3045.23V795.36C3045.23 803.35 3046.48 809.831 3048.96 814.803C3051.62 819.597 3055.44 823.059 3060.41 825.19C3065.38 827.143 3071.33 828.119 3078.26 828.119C3083.23 828.119 3088.47 827.675 3093.97 826.788C3099.65 825.722 3103.91 824.835 3106.76 824.124L3126.46 918.141C3120.25 919.916 3111.46 922.136 3100.1 924.799C3088.91 927.462 3075.51 929.149 3059.88 929.859C3029.34 931.28 3003.15 927.729 2981.31 919.206C2959.65 910.506 2943.05 897.011 2931.51 878.723C2920.14 860.435 2914.64 837.441 2914.99 809.742V416.898Z" fill="#A01DF1"/>
<path d="M3185.46 924V514.909H3309.3V590.016H3313.83C3322.35 565.158 3336.74 545.538 3356.98 531.156C3377.22 516.773 3401.37 509.582 3429.42 509.582C3457.83 509.582 3482.16 516.862 3502.4 531.422C3522.64 545.982 3535.51 565.513 3541.02 590.016H3545.28C3552.91 565.69 3567.83 546.248 3590.02 531.688C3612.22 516.951 3638.41 509.582 3668.59 509.582C3707.3 509.582 3738.72 522.011 3762.87 546.869C3787.02 571.55 3799.09 605.463 3799.09 648.609V924H3668.86V678.439C3668.86 658.02 3663.62 642.484 3653.14 631.83C3642.67 620.999 3629.08 615.584 3612.39 615.584C3594.46 615.584 3580.34 621.443 3570.05 633.162C3559.93 644.703 3554.86 660.239 3554.86 679.771V924H3429.69V677.107C3429.69 658.109 3424.54 643.105 3414.24 632.097C3403.94 621.088 3390.36 615.584 3373.49 615.584C3362.13 615.584 3352.09 618.336 3343.39 623.84C3334.69 629.167 3327.86 636.802 3322.89 646.745C3318.09 656.688 3315.7 668.407 3315.7 681.901V924H3185.46ZM4071.02 931.724C4028.23 931.724 3991.3 923.29 3960.23 906.422C3929.33 889.376 3905.54 865.14 3888.85 833.712C3872.34 802.107 3864.08 764.554 3864.08 721.053C3864.08 678.794 3872.43 641.862 3889.12 610.257C3905.81 578.474 3929.33 553.794 3959.69 536.216C3990.06 518.46 4025.83 509.582 4067.03 509.582C4096.15 509.582 4122.78 514.11 4146.93 523.165C4171.08 532.221 4191.94 545.626 4209.52 563.382C4227.09 581.138 4240.77 603.066 4250.53 629.167C4260.3 655.09 4265.18 684.831 4265.18 718.389V750.882H3909.62V675.243H4144C4143.82 661.393 4140.54 649.053 4134.14 638.222C4127.75 627.391 4118.96 618.957 4107.78 612.92C4096.77 606.706 4084.07 603.599 4069.69 603.599C4055.13 603.599 4042.08 606.884 4030.54 613.453C4019 619.845 4009.85 628.634 4003.11 639.82C3996.36 650.829 3992.81 663.347 3992.45 677.374V754.344C3992.45 771.035 3995.74 785.683 4002.31 798.29C4008.88 810.719 4018.2 820.396 4030.27 827.32C4042.35 834.245 4056.73 837.707 4073.42 837.707C4084.96 837.707 4095.44 836.109 4104.85 832.913C4114.26 829.717 4122.34 825.012 4129.08 818.798C4135.83 812.583 4140.89 804.948 4144.26 795.893L4263.85 799.355C4258.88 826.166 4247.96 849.515 4231.09 869.401C4214.4 889.11 4192.47 904.469 4165.31 915.477C4138.14 926.308 4106.71 931.724 4071.02 931.724Z" fill="black"/>
<defs>
<filter id="filter0_i_30_59" x="0" y="0" width="1400" height="1404" filterUnits="userSpaceOnUse" color-interpolation-filters="sRGB">
<feFlood flood-opacity="0" result="BackgroundImageFix"/>
<feBlend mode="normal" in="SourceGraphic" in2="BackgroundImageFix" result="shape"/>
<feColorMatrix in="SourceAlpha" type="matrix" values="0 0 0 0 0 0 0 0 0 0 0 0 0 0 0 0 0 0 127 0" result="hardAlpha"/>
<feOffset dy="4"/>
<feGaussianBlur stdDeviation="2"/>
<feComposite in2="hardAlpha" operator="arithmetic" k2="-1" k3="1"/>
<feColorMatrix type="matrix" values="0 0 0 0 0 0 0 0 0 0 0 0 0 0 0 0 0 0 0.25 0"/>
<feBlend mode="normal" in2="shape" result="effect1_innerShadow_30_59"/>
</filter>
<linearGradient id="paint0_linear_30_59" x1="700" y1="0" x2="700" y2="1400" gradientUnits="userSpaceOnUse">
<stop stop-color="#A01DF1"/>
<stop offset="1" stop-color="#1D4CF1" stop-opacity="0.65"/>
</linearGradient>
<radialGradient id="paint1_radial_30_59" cx="0" cy="0" r="1" gradientUnits="userSpaceOnUse" gradientTransform="translate(994.27 325.12) rotate(133.087) scale(597.035 596.364)">
<stop stop-color="#FFF500"/>
<stop offset="1" stop-color="#A78613" stop-opacity="0"/>
</radialGradient>
<radialGradient id="paint2_radial_30_59" cx="0" cy="0" r="1" gradientUnits="userSpaceOnUse" gradientTransform="translate(700 459.5) rotate(90) scale(1155 1695.08)">
<stop stop-color="#9B1CF1"/>
<stop offset="1" stop-color="#D9D9D9" stop-opacity="0.23"/>
</radialGradient>
</defs>
</svg>
